<!-- Generator: Adobe Illustrator 21.1.0, SVG Export Plug-In  -->
<svg version="1.1"
	 xmlns="http://www.w3.org/2000/svg" xmlns:xlink="http://www.w3.org/1999/xlink" xmlns:a="http://ns.adobe.com/AdobeSVGViewerExtensions/3.0/"
	 x="0px" y="0px" width="242.5px" height="245px" viewBox="0 0 242.5 245" style="enable-background:new 0 0 242.5 245;"
	 xml:space="preserve">
<style type="text/css">
	.st0{fill:#E1E0E3;}
	.st1{fill:#C7C5CC;}
	.st2{fill:#8EC3EA;}
	.st3{fill:#4D9BD5;}
	.st4{fill:#F9CA86;}
	.st5{fill:#6CC397;}
	.st6{fill:#010101;}
</style>
<defs>
</defs>
<g>
	<path class="st0" d="M169.7,197.6l-30,10.5c0-13.6-5.3-26.7-14.6-36.4c-5-5.2-11.2-9.5-18.4-12.4c-7.2-2.9-14.6-4-21.8-3.7
		c-13.5,0.6-26.3,6.5-35.7,16.4l-14.6-28.3c15.3,3.7,31.2,0.2,43.3-8.7c7.6-5.6,13.9-13.4,17.6-22.8c3.8-9.5,4.6-19.4,2.9-28.7
		c-2.7-14.9-11.8-28.3-25.5-36.1l30-10.5c0,13.6,5.3,26.7,14.6,36.4c5,5.2,11.2,9.5,18.4,12.4c7.2,2.9,14.6,4,21.8,3.7
		c13.5-0.6,26.3-6.5,35.7-16.4l14.6,28.3c-15.3-3.7-31.2-0.2-43.3,8.7c-7.6,5.6-13.9,13.4-17.6,22.8c-3.8,9.5-4.6,19.4-2.9,28.7
		C146.9,176.3,156,189.7,169.7,197.6z"/>
	<g>
		<path class="st1" d="M169.7,197.6l-30,10.5c0-13.6-5.3-26.7-14.6-36.4c5.5-4.9,12.1-8.4,19.2-10.2
			C146.9,176.3,156,189.7,169.7,197.6z"/>
		<path class="st1" d="M84.7,155.7c-13.5,0.6-26.3,6.5-35.7,16.4l-14.6-28.3c15.3,3.7,31.2,0.2,43.3-8.7c1.3,2,2.4,4.2,3.4,6.4
			C83.2,146.1,84.4,150.8,84.7,155.7z"/>
		<path class="st1" d="M208,101.2c-15.3-3.7-31.2-0.2-43.3,8.7c-1.3-2-2.4-4.2-3.4-6.4c-2-4.6-3.2-9.4-3.5-14.2
			c13.5-0.6,26.3-6.5,35.7-16.4L208,101.2z"/>
		<path class="st1" d="M117.5,73.3c-5.5,4.9-12.1,8.4-19.2,10.2c-2.7-14.9-11.8-28.3-25.5-36.1l30-10.5
			C102.8,50.5,108.1,63.6,117.5,73.3z"/>
	</g>
	<ellipse transform="matrix(0.3694 -0.9293 0.9293 0.3694 -92.59 273.206)" class="st2" cx="155" cy="204.8" rx="37.1" ry="37.1"/>
	<ellipse transform="matrix(0.3694 -0.9293 0.9293 0.3694 -92.59 273.206)" class="st3" cx="155" cy="204.8" rx="18.3" ry="18.3"/>
	<ellipse transform="matrix(0.3694 -0.9293 0.9293 0.3694 -92.59 273.206)" class="st4" cx="155" cy="204.8" rx="9.4" ry="9.4"/>
	
		<ellipse transform="matrix(0.3694 -0.9293 0.9293 0.3694 -122.5841 137.7001)" class="st2" cx="40.2" cy="159.2" rx="37.1" ry="37.1"/>
	
		<ellipse transform="matrix(0.3694 -0.9293 0.9293 0.3694 -122.6522 137.3921)" class="st3" cx="39.9" cy="159.1" rx="18.3" ry="18.3"/>
	
		<ellipse transform="matrix(0.3694 -0.9293 0.9293 0.3694 -122.5841 137.7001)" class="st4" cx="40.2" cy="159.2" rx="9.4" ry="9.4"/>
	
		<ellipse transform="matrix(0.3694 -0.9293 0.9293 0.3694 47.8253 242.1253)" class="st2" cx="202.3" cy="85.8" rx="37.1" ry="37.1"/>
	
		<ellipse transform="matrix(0.3694 -0.9293 0.9293 0.3694 47.8253 242.1253)" class="st3" cx="202.3" cy="85.8" rx="18.3" ry="18.3"/>
	<ellipse transform="matrix(0.3694 -0.9293 0.9293 0.3694 47.8253 242.1253)" class="st4" cx="202.3" cy="85.8" rx="9.4" ry="9.4"/>
	
		<ellipse transform="matrix(0.3694 -0.9293 0.9293 0.3694 17.8312 106.6193)" class="st2" cx="87.5" cy="40.2" rx="37.1" ry="37.1"/>
	<ellipse transform="matrix(0.3694 -0.9293 0.9293 0.3694 17.763 106.3114)" class="st3" cx="87.2" cy="40.1" rx="18.3" ry="18.3"/>
	<ellipse transform="matrix(0.3694 -0.9293 0.9293 0.3694 17.8312 106.6193)" class="st4" cx="87.5" cy="40.2" rx="9.4" ry="9.4"/>
	
		<rect x="109.2" y="115.3" transform="matrix(0.3694 -0.9293 0.9293 0.3694 -36.1853 189.6495)" class="st5" width="24.9" height="12.4"/>
	<path class="st6" d="M169.8,167.5c-7.1-2.8-14.6-3.5-21.7-2.2c-2.9-10.3-2.3-21.4,1.7-31.4c4-10,11.1-18.4,20.3-24
		c4.4,5.9,10.4,10.5,17.3,13.3c2.2,0.9,4.5,1.6,6.9,2.1c1.7,0.3,3.3-0.7,3.6-2.4c0.3-1.7-0.7-3.3-2.4-3.6
		c-11-2.2-20.2-9.7-24.6-19.9c-3.6-8.4-3.7-17.6-0.4-26.1c3.4-8.5,9.8-15.1,18.2-18.7c17.2-7.4,37.3,0.5,44.8,17.8
		c7.4,17.2-0.5,37.3-17.8,44.8c-2.5,1.1-5.1,1.9-7.8,2.3c-1.7,0.3-2.8,1.9-2.5,3.5c0.3,1.7,1.9,2.8,3.5,2.5c3.2-0.5,6.3-1.5,9.2-2.7
		c20.3-8.8,29.8-32.4,21-52.8c-8.8-20.3-32.4-29.8-52.8-21C176.6,53.2,169,61,165,71c-1.9,4.8-2.9,9.8-2.9,14.8
		c-8.5,1.2-17.1,0.2-25.1-3c0,0,0,0,0,0c0,0,0,0,0,0c-8-3.2-15-8.4-20.3-15.1c3.4-3.6,6.2-7.9,8.1-12.7c8.2-20.6-1.9-44-22.5-52.2
		s-44,1.9-52.2,22.5s1.9,44,22.5,52.2c7.1,2.8,14.6,3.5,21.7,2.2c2.9,10.3,2.3,21.4-1.7,31.4c-1,2.5-2.2,4.9-3.6,7.2
		c-0.9,1.4-0.4,3.3,1,4.2c0.1,0.1,0.3,0.2,0.4,0.2c1.4,0.5,3,0,3.7-1.3c1.5-2.6,2.9-5.3,4-8.1c4.5-11.2,5.1-23.6,2-35.1
		c4.3-1.4,8.3-3.6,11.9-6.4c5.3,6.6,12.1,11.9,19.8,15.4l-7.4,18.7l-2.9-1.2c-1.6-0.6-3.3,0.1-4,1.7l-9.2,23.1
		c-0.6,1.6,0.1,3.3,1.7,4l2.9,1.2l-8.2,20.7c-8.1-2.7-16.6-3.5-25-2.4c-0.5-3.3-1.5-6.6-2.8-9.8c-0.4-1-0.9-2-1.5-3
		c3.9-2.4,7.5-5.2,10.6-8.4c1.2-1.2,1.2-3.1,0-4.3c-1.2-1.2-3.1-1.2-4.3,0c-2.9,2.9-6.1,5.4-9.6,7.5c-4.4-5.9-10.3-10.5-17.3-13.2
		c-10-4-20.9-3.8-30.7,0.4c-20.3,8.8-29.8,32.4-21,52.8c4.4,10.2,12.5,17.6,22.1,21.4s20.6,4,30.7-0.4c1.5-0.7,2.3-2.5,1.6-4
		c-0.7-1.5-2.5-2.3-4-1.6c-17.2,7.4-37.3-0.5-44.8-17.8c-7.4-17.2,0.5-37.3,17.8-44.8c8.4-3.6,17.6-3.7,26.1-0.4
		c8.5,3.4,15.1,9.8,18.7,18.2c5.6,13,2.7,27.8-7.4,37.8c-1.2,1.2-1.2,3.1,0,4.3c1.2,1.2,3.1,1.2,4.3,0c5.7-5.6,9.6-12.8,11.2-20.6
		c0.5-2.7,0.8-5.3,0.8-8c8.5-1.2,17.1-0.2,25.1,3c0,0,0,0,0,0s0,0,0,0c8,3.2,15,8.4,20.3,15.1c-3.4,3.6-6.2,7.9-8.1,12.7
		c-8.2,20.6,1.9,44,22.5,52.2s44-1.9,52.2-22.5S190.4,175.7,169.8,167.5z M74.9,71.8c-17.5-6.9-26-26.8-19.1-44.2s26.8-26,44.2-19.1
		s26,26.8,19.1,44.2C112.2,70.2,92.3,78.8,74.9,71.8z M122.2,111.6l5.8,2.3l-6.9,17.5l-5.8-2.3L122.2,111.6z M110.5,157.7l8.2-20.7
		l2.9,1.2c1.6,0.6,3.3-0.1,4-1.7l9.2-23.1c0.6-1.6-0.1-3.3-1.7-4l-2.9-1.2l7.4-18.7c8.1,2.7,16.6,3.5,25,2.4
		c0.5,3.3,1.5,6.6,2.8,9.8c0.4,1,0.9,2,1.5,3c-10.2,6.2-18.2,15.7-22.7,26.9c-4.5,11.2-5.1,23.6-2,35.1c-4.3,1.4-8.3,3.6-11.9,6.4
		C125,166.5,118.2,161.3,110.5,157.7z M142.4,236.5c-17.5-6.9-26-26.8-19.1-44.2s26.8-26,44.2-19.1s26,26.8,19.1,44.2
		C179.7,234.9,159.9,243.4,142.4,236.5z"/>
	<path class="st6" d="M162.3,194.7l5.6-14.1c0.6-1.6-0.1-3.3-1.7-4c-1.6-0.6-3.3,0.1-4,1.7l-5.6,14.1c-5.5-0.7-11.1,2.3-13.2,7.8
		c-2.2,5.4-0.2,11.5,4.3,14.7l-5.9,14.8c-0.6,1.6,0.1,3.3,1.7,4c1.6,0.6,3.3-0.1,4-1.7l5.9-14.8c5.5,0.7,11.1-2.3,13.2-7.8
		C168.8,204,166.9,198,162.3,194.7z M152.7,210.8c-3.3-1.3-4.9-5-3.6-8.3c1.3-3.3,5-4.9,8.3-3.6c3.3,1.3,4.9,5,3.6,8.3
		C159.6,210.5,155.9,212.1,152.7,210.8z"/>
	<path class="st6" d="M68,147.2c-0.7-1.5-2.5-2.3-4-1.6l-13.9,6c-1.4-1.8-3.2-3.2-5.3-4c-3.1-1.2-6.5-1.2-9.6,0.1
		c-3.1,1.3-5.4,3.8-6.7,6.9c-0.8,2.1-1.1,4.4-0.7,6.6l-14.6,6.3c-1.5,0.7-2.3,2.5-1.6,4c0.3,0.8,0.9,1.3,1.7,1.6
		c0.7,0.3,1.6,0.3,2.3,0l14.6-6.3c1.4,1.8,3.2,3.2,5.3,4c3,1.2,6.4,1.2,9.6-0.1c3.1-1.3,5.4-3.8,6.7-6.9c0.8-2.1,1.1-4.4,0.7-6.6
		l13.9-6C67.9,150.5,68.7,148.7,68,147.2z M42.7,165c-3.2,1.4-7-0.1-8.4-3.3c-1.4-3.2,0.1-7,3.3-8.4c1.6-0.7,3.4-0.7,4.9-0.1
		c1.5,0.6,2.8,1.8,3.5,3.4c0.7,1.6,0.7,3.3,0.1,4.9C45.5,163.1,44.3,164.4,42.7,165z"/>
	<path class="st6" d="M190.8,90.8c1.3,3.1,3.8,5.4,6.9,6.7c2.1,0.8,4.4,1.1,6.6,0.7l6,13.9c0.3,0.8,0.9,1.3,1.7,1.6s1.6,0.3,2.3,0
		c1.5-0.7,2.3-2.5,1.6-4l-6-13.9c1.8-1.4,3.2-3.2,4-5.3c1.2-3.1,1.2-6.5-0.1-9.6c-2.3-5.4-7.9-8.3-13.5-7.4L194,58.9
		c-0.7-1.5-2.5-2.3-4-1.6c-1.5,0.7-2.3,2.5-1.6,4l6.3,14.6c-1.8,1.4-3.2,3.2-4,5.3C189.5,84.3,189.5,87.7,190.8,90.8z M204.7,79.9
		c1.5,0.6,2.8,1.8,3.5,3.4c1.4,3.2-0.1,7-3.3,8.4c-3.2,1.4-7-0.1-8.4-3.3c-0.7-1.6-0.7-3.3-0.1-4.9s1.8-2.8,3.4-3.5
		C201.4,79.3,203.2,79.3,204.7,79.9z"/>
	<path class="st6" d="M94.8,30l5.6-14.1c0.6-1.6-0.1-3.3-1.7-4c-1.6-0.6-3.3,0.1-4,1.7l-5.6,14.1c-5.5-0.7-11.1,2.3-13.2,7.8
		S75.6,47,80.2,50.3l-5.9,14.8c-0.6,1.6,0.1,3.3,1.7,4s3.3-0.1,4-1.7l5.9-14.8c5.5,0.7,11.1-2.3,13.2-7.8S99.3,33.3,94.8,30z
		 M85.1,46.1c-3.3-1.3-4.9-5-3.6-8.3c1.3-3.3,5-4.9,8.3-3.6c3.3,1.3,4.9,5,3.6,8.3C92.1,45.8,88.4,47.4,85.1,46.1z"/>
	<path class="st6" d="M109.2,107l0.2,0.1c1.6,0.6,3.3-0.1,4-1.7s-0.1-3.3-1.7-4l-0.2-0.1c-1.6-0.6-3.3,0.1-4,1.7
		S107.7,106.3,109.2,107z"/>
	<path class="st6" d="M105.3,116.9l0.2,0.1c1.6,0.6,3.3-0.1,4-1.7s-0.1-3.3-1.7-4l-0.2-0.1c-1.6-0.6-3.3,0.1-4,1.7
		C103,114.5,103.7,116.3,105.3,116.9z"/>
</g>
</svg>
